<?xml version="1.0" encoding="UTF-8" standalone="no"?>
<!-- Created with Inkscape (http://www.inkscape.org/) -->

<svg
   xmlns:dc="http://purl.org/dc/elements/1.1/"
   xmlns:cc="http://creativecommons.org/ns#"
   xmlns:rdf="http://www.w3.org/1999/02/22-rdf-syntax-ns#"
   xmlns:svg="http://www.w3.org/2000/svg"
   xmlns="http://www.w3.org/2000/svg"
   xmlns:xlink="http://www.w3.org/1999/xlink"
   xmlns:sodipodi="http://sodipodi.sourceforge.net/DTD/sodipodi-0.dtd"
   xmlns:inkscape="http://www.inkscape.org/namespaces/inkscape"
   width="659.60559"
   height="659.60559"
   id="svg2"
   version="1.1"
   inkscape:version="0.48.1 "
   sodipodi:docname="solarsystem.svg">
  <defs
     id="defs4">
    <linearGradient
       id="linearGradient3867">
      <stop
         style="stop-color:#ffff00;stop-opacity:1;"
         offset="0"
         id="stop3869" />
      <stop
         style="stop-color:#ff9900;stop-opacity:1;"
         offset="1"
         id="stop3871" />
    </linearGradient>
    <linearGradient
       id="linearGradient3840">
      <stop
         style="stop-color:#d9c36c;stop-opacity:1;"
         offset="0"
         id="stop3842" />
      <stop
         id="stop3854"
         offset="0.73508734"
         style="stop-color:#d9c36c;stop-opacity:1;" />
      <stop
         id="stop3852"
         offset="0.77764308"
         style="stop-color:#000000;stop-opacity:1;" />
      <stop
         id="stop3848"
         offset="0.81658584"
         style="stop-color:#d9c36c;stop-opacity:1;" />
      <stop
         style="stop-color:#d3bc5f;stop-opacity:1;"
         offset="1"
         id="stop3844" />
    </linearGradient>
    <linearGradient
       id="linearGradient3804">
      <stop
         style="stop-color:#ff9900;stop-opacity:1;"
         offset="0"
         id="stop3806" />
      <stop
         id="stop3828"
         offset="0.81811762"
         style="stop-color:#b26a00;stop-opacity:1;" />
      <stop
         style="stop-color:#804e00;stop-opacity:1;"
         offset="1"
         id="stop3808" />
    </linearGradient>
    <radialGradient
       inkscape:collect="always"
       xlink:href="#linearGradient3804"
       id="radialGradient3810"
       cx="160.07759"
       cy="246.20267"
       fx="160.07759"
       fy="246.20267"
       r="8.0052013"
       gradientUnits="userSpaceOnUse" />
    <radialGradient
       inkscape:collect="always"
       xlink:href="#linearGradient3804"
       id="radialGradient3830"
       cx="147.90134"
       cy="244.51564"
       fx="147.90134"
       fy="244.51564"
       r="8.7552013"
       gradientUnits="userSpaceOnUse" />
    <radialGradient
       inkscape:collect="always"
       xlink:href="#linearGradient3804"
       id="radialGradient3832"
       cx="145.34793"
       cy="249.38963"
       fx="145.34793"
       fy="249.38963"
       r="8.7552013"
       gradientUnits="userSpaceOnUse" />
    <radialGradient
       inkscape:collect="always"
       xlink:href="#linearGradient3804"
       id="radialGradient3834"
       cx="152.29176"
       cy="258.38461"
       fx="152.29176"
       fy="258.38461"
       r="8.7552013"
       gradientUnits="userSpaceOnUse" />
    <radialGradient
       inkscape:collect="always"
       xlink:href="#linearGradient3804"
       id="radialGradient3836"
       cx="160.77747"
       cy="253.26489"
       fx="160.77747"
       fy="253.26489"
       r="8.5837727"
       gradientUnits="userSpaceOnUse" />
    <radialGradient
       inkscape:collect="always"
       xlink:href="#linearGradient3804"
       id="radialGradient3838"
       cx="147.38531"
       cy="255.85149"
       fx="147.38531"
       fy="255.85149"
       r="8.5837727"
       gradientUnits="userSpaceOnUse" />
    <radialGradient
       inkscape:collect="always"
       xlink:href="#linearGradient3840"
       id="radialGradient3857"
       cx="153.28479"
       cy="250.6501"
       fx="153.28479"
       fy="250.6501"
       r="8.0052004"
       gradientTransform="matrix(1,0,0,0.97380265,0,6.5663677)"
       gradientUnits="userSpaceOnUse" />
    <radialGradient
       inkscape:collect="always"
       xlink:href="#linearGradient3804"
       id="radialGradient3859"
       cx="146.77443"
       cy="245.78116"
       fx="146.77443"
       fy="245.78116"
       r="8.7552013"
       gradientUnits="userSpaceOnUse" />
    <radialGradient
       inkscape:collect="always"
       xlink:href="#linearGradient3804"
       id="radialGradient3861"
       cx="161.28999"
       cy="250.44038"
       fx="161.28999"
       fy="250.44038"
       r="8.7552013"
       gradientUnits="userSpaceOnUse" />
    <radialGradient
       inkscape:collect="always"
       xlink:href="#linearGradient3804"
       id="radialGradient3863"
       cx="158.73346"
       cy="244.57559"
       fx="158.73346"
       fy="244.57559"
       r="8.7552013"
       gradientUnits="userSpaceOnUse" />
    <radialGradient
       inkscape:collect="always"
       xlink:href="#linearGradient3867"
       id="radialGradient3873"
       cx="521.82056"
       cy="356.28693"
       fx="521.82056"
       fy="356.28693"
       r="295.89597"
       gradientTransform="matrix(1,0,0,0.70541085,0,104.95826)"
       gradientUnits="userSpaceOnUse" />
    <radialGradient
       inkscape:collect="always"
       xlink:href="#linearGradient3867"
       id="radialGradient4821"
       gradientUnits="userSpaceOnUse"
       gradientTransform="matrix(1,0,0,0.70541085,0,104.95826)"
       cx="521.82056"
       cy="356.28693"
       fx="521.82056"
       fy="356.28693"
       r="295.89597" />
    <radialGradient
       inkscape:collect="always"
       xlink:href="#linearGradient3804"
       id="radialGradient4823"
       gradientUnits="userSpaceOnUse"
       cx="161.28999"
       cy="250.44038"
       fx="161.28999"
       fy="250.44038"
       r="8.7552013" />
    <radialGradient
       inkscape:collect="always"
       xlink:href="#linearGradient3804"
       id="radialGradient4825"
       gradientUnits="userSpaceOnUse"
       cx="158.73346"
       cy="244.57559"
       fx="158.73346"
       fy="244.57559"
       r="8.7552013" />
    <radialGradient
       inkscape:collect="always"
       xlink:href="#linearGradient3804"
       id="radialGradient4827"
       gradientUnits="userSpaceOnUse"
       cx="146.77443"
       cy="245.78116"
       fx="146.77443"
       fy="245.78116"
       r="8.7552013" />
    <radialGradient
       inkscape:collect="always"
       xlink:href="#linearGradient3804"
       id="radialGradient4829"
       gradientUnits="userSpaceOnUse"
       cx="145.34793"
       cy="249.38963"
       fx="145.34793"
       fy="249.38963"
       r="8.7552013" />
    <radialGradient
       inkscape:collect="always"
       xlink:href="#linearGradient3804"
       id="radialGradient4831"
       gradientUnits="userSpaceOnUse"
       cx="147.90134"
       cy="244.51564"
       fx="147.90134"
       fy="244.51564"
       r="8.7552013" />
    <radialGradient
       inkscape:collect="always"
       xlink:href="#linearGradient3804"
       id="radialGradient4833"
       gradientUnits="userSpaceOnUse"
       cx="160.07759"
       cy="246.20267"
       fx="160.07759"
       fy="246.20267"
       r="8.0052013" />
    <radialGradient
       inkscape:collect="always"
       xlink:href="#linearGradient3804"
       id="radialGradient4835"
       gradientUnits="userSpaceOnUse"
       cx="152.29176"
       cy="258.38461"
       fx="152.29176"
       fy="258.38461"
       r="8.7552013" />
    <radialGradient
       inkscape:collect="always"
       xlink:href="#linearGradient3804"
       id="radialGradient4837"
       gradientUnits="userSpaceOnUse"
       cx="160.77747"
       cy="253.26489"
       fx="160.77747"
       fy="253.26489"
       r="8.5837727" />
    <radialGradient
       inkscape:collect="always"
       xlink:href="#linearGradient3804"
       id="radialGradient4839"
       gradientUnits="userSpaceOnUse"
       cx="147.38531"
       cy="255.85149"
       fx="147.38531"
       fy="255.85149"
       r="8.5837727" />
    <radialGradient
       inkscape:collect="always"
       xlink:href="#linearGradient3840"
       id="radialGradient4841"
       gradientUnits="userSpaceOnUse"
       gradientTransform="matrix(1,0,0,0.97380265,0,6.5663677)"
       cx="153.28479"
       cy="250.6501"
       fx="153.28479"
       fy="250.6501"
       r="8.0052004" />
  </defs>
  <sodipodi:namedview
     id="base"
     pagecolor="#ffffff"
     bordercolor="#666666"
     borderopacity="1.0"
     inkscape:pageopacity="0.0"
     inkscape:pageshadow="2"
     inkscape:zoom="0.93928068"
     inkscape:cx="149.05912"
     inkscape:cy="355.00291"
     inkscape:document-units="px"
     inkscape:current-layer="layer1"
     showgrid="false"
     inkscape:window-width="1680"
     inkscape:window-height="988"
     inkscape:window-x="-8"
     inkscape:window-y="-8"
     inkscape:window-maximized="1"
     inkscape:snap-bbox="true"
     inkscape:bbox-paths="true"
     inkscape:bbox-nodes="true"
     inkscape:snap-bbox-edge-midpoints="true"
     inkscape:snap-bbox-midpoints="true"
     inkscape:object-paths="true"
     inkscape:object-nodes="true"
     inkscape:snap-intersection-paths="true"
     inkscape:snap-smooth-nodes="true"
     inkscape:snap-midpoints="true"
     inkscape:snap-object-midpoints="true"
     inkscape:snap-center="true"
     inkscape:snap-global="false"
     showguides="true"
     inkscape:guide-bbox="true"
     fit-margin-top="0"
     fit-margin-left="0"
     fit-margin-right="0"
     fit-margin-bottom="0" />
  <metadata
     id="metadata7">
    <rdf:RDF>
      <cc:Work
         rdf:about="">
        <dc:format>image/svg+xml</dc:format>
        <dc:type
           rdf:resource="http://purl.org/dc/dcmitype/StillImage" />
        <dc:title></dc:title>
      </cc:Work>
    </rdf:RDF>
  </metadata>
  <g
     inkscape:label="Camada 1"
     inkscape:groupmode="layer"
     id="layer1"
     transform="translate(-198.22224,-348.20584)">
    <g
       id="g4797">
      <rect
         y="348.20584"
         x="198.22224"
         height="659.60559"
         width="659.60559"
         id="rect3865"
         style="fill:#1a1a1a;stroke:none" />
      <path
         id="path4342"
         transform="translate(0,308.2677)"
         d="m 636.96875,70.9375 c -1.37659,0 -2.46875,1.123412 -2.46875,2.5 0,1.376588 1.09216,2.46875 2.46875,2.46875 1.37659,0 2.5,-1.092162 2.5,-2.46875 0,-1.376588 -1.12341,-2.5 -2.5,-2.5 z m -48.125,7.09375 c -1.37659,0 -2.5,1.123412 -2.5,2.5 0,1.376588 1.12341,2.5 2.5,2.5 1.37659,0 2.5,-1.123412 2.5,-2.5 0,-1.376588 -1.12341,-2.5 -2.5,-2.5 z m -196.4375,0.0625 c -1.37659,0 -2.46875,1.092162 -2.46875,2.46875 0,1.376588 1.09216,2.5 2.46875,2.5 1.37659,0 2.5,-1.123412 2.5,-2.5 0,-1.376588 -1.12341,-2.46875 -2.5,-2.46875 z M 332.03125,78.5 c -1.37659,0 -2.46875,1.123412 -2.46875,2.5 0,1.376588 1.09216,2.46875 2.46875,2.46875 1.37659,0 2.5,-1.092162 2.5,-2.46875 0,-1.376588 -1.12341,-2.5 -2.5,-2.5 z m 445.28125,0.78125 c -1.37659,0 -2.5,1.123412 -2.5,2.5 0,1.376588 1.12341,2.5 2.5,2.5 1.37659,0 2.5,-1.123412 2.5,-2.5 0,-1.376588 -1.12341,-2.5 -2.5,-2.5 z M 469.71875,82.625 c -1.37659,0 -2.5,1.123412 -2.5,2.5 0,1.376588 1.12341,2.5 2.5,2.5 1.37659,0 2.5,-1.123412 2.5,-2.5 0,-1.376588 -1.12341,-2.5 -2.5,-2.5 z m 252.4375,0.875 c -1.37659,0 -2.5,1.123412 -2.5,2.5 0,1.376588 1.12341,2.46875 2.5,2.46875 1.37659,0 2.5,-1.092162 2.5,-2.46875 0,-1.376588 -1.12341,-2.5 -2.5,-2.5 z M 234.75,85.65625 c -1.37659,0 -2.46875,1.092162 -2.46875,2.46875 0,1.376588 1.09216,2.5 2.46875,2.5 1.37659,0 2.5,-1.123412 2.5,-2.5 0,-1.376588 -1.12341,-2.46875 -2.5,-2.46875 z m 40.21875,3.5625 c -1.37659,0 -2.5,1.092162 -2.5,2.46875 0,1.376588 1.12341,2.5 2.5,2.5 1.37659,0 2.46875,-1.123412 2.46875,-2.5 0,-1.376588 -1.09216,-2.46875 -2.46875,-2.46875 z M 225.1875,91.5 c -1.37659,0 -2.5,1.123412 -2.5,2.5 0,1.376588 1.12341,2.46875 2.5,2.46875 1.37659,0 2.5,-1.092162 2.5,-2.46875 0,-1.376588 -1.12341,-2.5 -2.5,-2.5 z m 580.75,0.125 c -1.37659,0 -2.5,1.092162 -2.5,2.46875 0,1.376588 1.12341,2.5 2.5,2.5 1.37659,0 2.5,-1.123412 2.5,-2.5 0,-1.376588 -1.12341,-2.46875 -2.5,-2.46875 z M 542.75,92.46875 c -1.37659,0 -2.5,1.123412 -2.5,2.5 0,1.376588 1.12341,2.46875 2.5,2.46875 1.37659,0 2.5,-1.092162 2.5,-2.46875 0,-1.376588 -1.12341,-2.5 -2.5,-2.5 z m -84.1875,0.25 c -1.37659,0 -2.5,1.123412 -2.5,2.5 0,1.376588 1.12341,2.46875 2.5,2.46875 1.37659,0 2.46875,-1.092162 2.46875,-2.46875 0,-1.376588 -1.09216,-2.5 -2.46875,-2.5 z m -177.78125,9.5 c -1.37659,0 -2.5,1.12341 -2.5,2.5 0,1.37659 1.12341,2.46875 2.5,2.46875 1.37659,0 2.5,-1.09216 2.5,-2.46875 0,-1.37659 -1.12341,-2.5 -2.5,-2.5 z m 123.84375,7.6875 c -1.37659,0 -2.5,1.12341 -2.5,2.5 0,1.37659 1.12341,2.5 2.5,2.5 1.37659,0 2.46875,-1.12341 2.46875,-2.5 0,-1.37659 -1.09216,-2.5 -2.46875,-2.5 z m 107.78125,1.5625 c -1.37659,0 -2.5,1.12341 -2.5,2.5 0,1.37659 1.12341,2.46875 2.5,2.46875 1.37659,0 2.46875,-1.09216 2.46875,-2.46875 0,-1.37659 -1.09216,-2.5 -2.46875,-2.5 z M 519,113.28125 c -1.37659,0 -2.5,1.12341 -2.5,2.5 0,1.37659 1.12341,2.5 2.5,2.5 1.37659,0 2.46875,-1.12341 2.46875,-2.5 0,-1.37659 -1.09216,-2.5 -2.46875,-2.5 z m 58.5625,3.125 c -1.37659,0 -2.46875,1.12341 -2.46875,2.5 0,1.37659 1.09216,2.46875 2.46875,2.46875 1.37659,0 2.5,-1.09216 2.5,-2.46875 0,-1.37659 -1.12341,-2.5 -2.5,-2.5 z m 172.5,0.9375 c -1.37659,0 -2.46875,1.12341 -2.46875,2.5 0,1.37659 1.09216,2.46875 2.46875,2.46875 1.37659,0 2.5,-1.09216 2.5,-2.46875 0,-1.37659 -1.12341,-2.5 -2.5,-2.5 z M 822.75,121 c -1.37659,0 -2.46875,1.12341 -2.46875,2.5 0,1.37659 1.09216,2.5 2.46875,2.5 1.37659,0 2.5,-1.12341 2.5,-2.5 0,-1.37659 -1.12341,-2.5 -2.5,-2.5 z m -103.90625,0.75 c -1.37659,0 -2.5,1.09216 -2.5,2.46875 0,1.37659 1.12341,2.5 2.5,2.5 1.37659,0 2.46875,-1.12341 2.46875,-2.5 0,-1.37659 -1.09216,-2.46875 -2.46875,-2.46875 z m -56.5625,0.0312 c -1.37659,0 -2.5,1.12341 -2.5,2.5 0,1.37659 1.12341,2.5 2.5,2.5 1.37659,0 2.5,-1.12341 2.5,-2.5 0,-1.37659 -1.12341,-2.5 -2.5,-2.5 z m -31.1875,4.875 c -1.37659,0 -2.5,1.12341 -2.5,2.5 0,1.37659 1.12341,2.5 2.5,2.5 1.37659,0 2.46875,-1.12341 2.46875,-2.5 0,-1.37659 -1.09216,-2.5 -2.46875,-2.5 z m -314.9375,1.5938 c -1.37659,0 -2.46875,1.09216 -2.46875,2.46875 0,1.37659 1.09216,2.5 2.46875,2.5 1.37659,0 2.5,-1.12341 2.5,-2.5 0,-1.37659 -1.12341,-2.46875 -2.5,-2.46875 z m 54.65625,9.84375 c -1.37659,0 -2.5,1.12341 -2.5,2.5 0,1.37659 1.12341,2.5 2.5,2.5 1.37659,0 2.5,-1.12341 2.5,-2.5 0,-1.37659 -1.12341,-2.5 -2.5,-2.5 z m -4.96875,4.53125 c -1.37659,0 -2.5,1.12341 -2.5,2.5 0,1.37659 1.12341,2.5 2.5,2.5 1.37659,0 2.5,-1.12341 2.5,-2.5 0,-1.37659 -1.12341,-2.5 -2.5,-2.5 z m 193.78125,2.0625 c -1.37659,0 -2.5,1.12341 -2.5,2.5 0,1.37659 1.12341,2.46875 2.5,2.46875 1.37659,0 2.5,-1.09216 2.5,-2.46875 0,-1.37659 -1.12341,-2.5 -2.5,-2.5 z m 6.1875,6 c -1.37659,0 -2.5,1.12341 -2.5,2.5 0,1.37659 1.12341,2.5 2.5,2.5 1.37659,0 2.5,-1.12341 2.5,-2.5 0,-1.37659 -1.12341,-2.5 -2.5,-2.5 z m -299.4375,1.875 c -1.37659,0 -2.5,1.12341 -2.5,2.5 0,1.37659 1.12341,2.5 2.5,2.5 1.37659,0 2.5,-1.12341 2.5,-2.5 0,-1.37659 -1.12341,-2.5 -2.5,-2.5 z m 549.78125,12.25 c -1.37659,0 -2.5,1.09216 -2.5,2.46875 0,1.37659 1.12341,2.5 2.5,2.5 1.37659,0 2.5,-1.12341 2.5,-2.5 0,-1.37659 -1.12341,-2.46875 -2.5,-2.46875 z m 0.53125,14.15625 c -1.37659,0 -2.5,1.12341 -2.5,2.5 0,1.37659 1.12341,2.5 2.5,2.5 1.37659,0 2.5,-1.12341 2.5,-2.5 0,-1.37659 -1.12341,-2.5 -2.5,-2.5 z M 758.25,181.4375 c -1.37659,0 -2.5,1.12341 -2.5,2.5 0,1.37659 1.12341,2.5 2.5,2.5 1.37659,0 2.5,-1.12341 2.5,-2.5 0,-1.37659 -1.12341,-2.5 -2.5,-2.5 z m -190,2 c -1.37659,0 -2.5,1.09216 -2.5,2.46875 0,1.37659 1.12341,2.5 2.5,2.5 1.37659,0 2.5,-1.12341 2.5,-2.5 0,-1.37659 -1.12341,-2.46875 -2.5,-2.46875 z m -167.5,0.8125 c -1.37659,0 -2.46875,1.12341 -2.46875,2.5 0,1.37659 1.09216,2.46875 2.46875,2.46875 1.37659,0 2.5,-1.09216 2.5,-2.46875 0,-1.37659 -1.12341,-2.5 -2.5,-2.5 z m 323.65625,6.5 c -1.37659,0 -2.5,1.09216 -2.5,2.46875 0,1.37659 1.12341,2.5 2.5,2.5 1.37659,0 2.5,-1.12341 2.5,-2.5 0,-1.37659 -1.12341,-2.46875 -2.5,-2.46875 z m -495.59375,4.90625 c -1.37659,0 -2.5,1.12341 -2.5,2.5 0,1.37659 1.12341,2.5 2.5,2.5 1.37659,0 2.5,-1.12341 2.5,-2.5 0,-1.37659 -1.12341,-2.5 -2.5,-2.5 z m 542.71875,4.1875 c -1.37659,0 -2.5,1.12341 -2.5,2.5 0,0.95567 0.55205,1.76704 1.34375,2.1875 0.004,0.002 -0.004,0.029 0,0.0312 0.017,1.36197 1.134,2.46875 2.5,2.46875 1.37659,0 2.5,-1.12341 2.5,-2.5 0,-0.95567 -0.55425,-1.76924 -1.34375,-2.1875 0,-0.0106 1.3e-4,-0.0207 0,-0.0312 -0.0171,-1.36208 -1.134,-2.46875 -2.5,-2.46875 z m -507.84375,6.8125 c -1.37659,0 -2.5,1.09216 -2.5,2.46875 0,1.37659 1.12341,2.5 2.5,2.5 1.37659,0 2.46875,-1.12341 2.46875,-2.5 0,-1.37659 -1.09216,-2.46875 -2.46875,-2.46875 z m 100.1875,1.9375 c -1.37659,0 -2.46875,1.09216 -2.46875,2.46875 0,1.32232 1.01293,2.38496 2.3125,2.46875 0.18362,1.1955 1.19063,2.09375 2.4375,2.09375 1.37659,0 2.5,-1.09216 2.5,-2.46875 0,-1.32232 -1.04245,-2.38551 -2.34375,-2.46875 -0.18477,-1.19182 -1.19063,-2.09375 -2.4375,-2.09375 z m 314.34375,2.0625 c -1.37659,0 -2.5,1.12341 -2.5,2.5 0,1.37659 1.12341,2.5 2.5,2.5 1.37659,0 2.46875,-1.12341 2.46875,-2.5 0,-1.37659 -1.09216,-2.5 -2.46875,-2.5 z m 125.625,2.625 c -1.37659,0 -2.5,1.09216 -2.5,2.46875 0,1.37659 1.12341,2.5 2.5,2.5 1.37659,0 2.5,-1.12341 2.5,-2.5 0,-1.37659 -1.12341,-2.46875 -2.5,-2.46875 z m 4.28125,7.09375 c -1.37659,0 -2.46875,1.12341 -2.46875,2.5 0,1.37659 1.09216,2.5 2.46875,2.5 1.37659,0 2.5,-1.12341 2.5,-2.5 0,-1.37659 -1.12341,-2.5 -2.5,-2.5 z m -297.875,7.3125 c -1.37659,0 -2.5,1.12341 -2.5,2.5 0,1.37659 1.12341,2.5 2.5,2.5 1.37659,0 2.5,-1.12341 2.5,-2.5 0,-1.37659 -1.12341,-2.5 -2.5,-2.5 z m -6.03125,3.28125 c -1.37659,0 -2.5,1.12341 -2.5,2.5 0,1.37659 1.12341,2.5 2.5,2.5 1.37659,0 2.5,-1.12341 2.5,-2.5 0,-1.37659 -1.12341,-2.5 -2.5,-2.5 z m -56.875,0.46875 c -1.37659,0 -2.5,1.12341 -2.5,2.5 0,1.37659 1.12341,2.46875 2.5,2.46875 1.37659,0 2.5,-1.09216 2.5,-2.46875 0,-1.37659 -1.12341,-2.5 -2.5,-2.5 z m 165.28125,0.40625 c -1.37659,0 -2.5,1.12341 -2.5,2.5 0,1.37659 1.12341,2.46875 2.5,2.46875 1.37659,0 2.5,-1.09216 2.5,-2.46875 0,-1.37659 -1.12341,-2.5 -2.5,-2.5 z m -62.03125,6.75 c -1.37659,0 -2.5,1.12341 -2.5,2.5 0,1.37659 1.12341,2.5 2.5,2.5 1.37659,0 2.46875,-1.12341 2.46875,-2.5 0,-1.37659 -1.09216,-2.5 -2.46875,-2.5 z M 432.375,253.375 c -1.37659,0 -2.5,1.12341 -2.5,2.5 0,1.37659 1.12341,2.5 2.5,2.5 1.37659,0 2.5,-1.12341 2.5,-2.5 0,-1.37659 -1.12341,-2.5 -2.5,-2.5 z m 75.8125,2.09375 c -1.37659,0 -2.5,1.12341 -2.5,2.5 0,1.37659 1.12341,2.5 2.5,2.5 1.37659,0 2.5,-1.12341 2.5,-2.5 0,-1.37659 -1.12341,-2.5 -2.5,-2.5 z M 435,259.5625 c -1.37659,0 -2.5,1.12341 -2.5,2.5 0,1.37659 1.12341,2.5 2.5,2.5 1.37659,0 2.5,-1.12341 2.5,-2.5 0,-1.37659 -1.12341,-2.5 -2.5,-2.5 z m 376.125,4.90625 c -1.37659,0 -2.5,1.12341 -2.5,2.5 0,1.37659 1.12341,2.46875 2.5,2.46875 1.37659,0 2.5,-1.09216 2.5,-2.46875 0,-1.37659 -1.12341,-2.5 -2.5,-2.5 z m -152.09375,8.96875 c -1.37659,0 -2.5,1.09216 -2.5,2.46875 0,1.37659 1.12341,2.5 2.5,2.5 1.37659,0 2.5,-1.12341 2.5,-2.5 0,-1.37659 -1.12341,-2.46875 -2.5,-2.46875 z m -105.59375,1.15625 c -1.37659,0 -2.5,1.12341 -2.5,2.5 0,1.37659 1.12341,2.5 2.5,2.5 1.37659,0 2.5,-1.12341 2.5,-2.5 0,-1.37659 -1.12341,-2.5 -2.5,-2.5 z m -196.125,4.78125 c -1.37659,0 -2.46875,1.09216 -2.46875,2.46875 0,1.37659 1.09216,2.5 2.46875,2.5 1.37659,0 2.5,-1.12341 2.5,-2.5 0,-1.37659 -1.12341,-2.46875 -2.5,-2.46875 z m -79.625,5.8125 c -1.37659,0 -2.46875,1.12341 -2.46875,2.5 0,1.37659 1.09216,2.5 2.46875,2.5 1.37659,0 2.5,-1.12341 2.5,-2.5 0,-1.37659 -1.12341,-2.5 -2.5,-2.5 z m 460.15625,9.0625 c -1.37659,0 -2.5,1.12341 -2.5,2.5 0,1.37659 1.12341,2.5 2.5,2.5 1.37659,0 2.5,-1.12341 2.5,-2.5 0,-1.37659 -1.12341,-2.5 -2.5,-2.5 z M 323.625,307.375 c -1.37659,0 -2.5,1.12341 -2.5,2.5 0,1.37659 1.12341,2.5 2.5,2.5 1.37659,0 2.46875,-1.12341 2.46875,-2.5 0,-1.37659 -1.09216,-2.5 -2.46875,-2.5 z m -50.78125,8.34375 c -1.37659,0 -2.46875,1.12341 -2.46875,2.5 0,1.37659 1.09216,2.46875 2.46875,2.46875 0.0971,0 0.18706,-0.0204 0.28125,-0.0312 0.13412,0.0224 0.26594,0.0625 0.40625,0.0625 1.37659,0 2.46875,-1.12341 2.46875,-2.5 0,-1.37659 -1.09216,-2.5 -2.46875,-2.5 -0.0649,0 -0.12386,0.0263 -0.1875,0.0312 -0.0101,-0.002 -0.0211,0.002 -0.0312,0 -0.15282,-0.0293 -0.30739,-0.0312 -0.46875,-0.0312 z m 497.96875,0.0937 c -1.37659,0 -2.5,1.12341 -2.5,2.5 0,1.37659 1.12341,2.46875 2.5,2.46875 1.37659,0 2.46875,-1.09216 2.46875,-2.46875 0,-1.37659 -1.09216,-2.5 -2.46875,-2.5 z m -170.375,0.53125 c -1.37659,0 -2.5,1.09216 -2.5,2.46875 0,1.37659 1.12341,2.5 2.5,2.5 1.37659,0 2.5,-1.12341 2.5,-2.5 0,-1.37659 -1.12341,-2.46875 -2.5,-2.46875 z m 232.28125,1.3125 c -1.37659,0 -2.46875,1.12341 -2.46875,2.5 0,1.37659 1.09216,2.46875 2.46875,2.46875 1.37659,0 2.5,-1.09216 2.5,-2.46875 0,-1.37659 -1.12341,-2.5 -2.5,-2.5 z m -88.34375,21.625 c -1.37659,0 -2.5,1.12341 -2.5,2.5 0,1.37659 1.12341,2.5 2.5,2.5 1.37659,0 2.5,-1.12341 2.5,-2.5 0,-1.37659 -1.12341,-2.5 -2.5,-2.5 z m -506.28125,1.40625 c -1.37659,0 -2.5,1.12341 -2.5,2.5 0,1.37659 1.12341,2.5 2.5,2.5 1.37659,0 2.5,-1.12341 2.5,-2.5 0,-1.37659 -1.12341,-2.5 -2.5,-2.5 z m 526.1875,11.28125 c -1.37659,0 -2.46875,1.09216 -2.46875,2.46875 0,1.37659 1.09216,2.5 2.46875,2.5 1.37659,0 2.5,-1.12341 2.5,-2.5 0,-1.37659 -1.12341,-2.46875 -2.5,-2.46875 z M 472.9375,362.3125 c -1.37659,0 -2.5,1.12341 -2.5,2.5 0,1.37659 1.12341,2.5 2.5,2.5 1.37659,0 2.46875,-1.12341 2.46875,-2.5 0,-1.37659 -1.09216,-2.5 -2.46875,-2.5 z m 294.84375,0.8125 c -1.37659,0 -2.5,1.12341 -2.5,2.5 0,1.37659 1.12341,2.5 2.5,2.5 1.37659,0 2.5,-1.12341 2.5,-2.5 0,-1.37659 -1.12341,-2.5 -2.5,-2.5 z m -336.875,0.0625 c -1.37659,0 -2.5,1.12341 -2.5,2.5 0,1.37659 1.12341,2.5 2.5,2.5 1.37659,0 2.5,-1.12341 2.5,-2.5 0,-1.37659 -1.12341,-2.5 -2.5,-2.5 z m 207.46875,1.59375 c -1.37659,0 -2.5,1.09216 -2.5,2.46875 0,1.37659 1.12341,2.5 2.5,2.5 1.37659,0 2.5,-1.12341 2.5,-2.5 0,-1.37659 -1.12341,-2.46875 -2.5,-2.46875 z M 252.90625,375.375 c -1.37659,0 -2.5,1.09216 -2.5,2.46875 0,1.37659 1.12341,2.5 2.5,2.5 1.37659,0 2.46875,-1.12341 2.46875,-2.5 0,-1.37659 -1.09216,-2.46875 -2.46875,-2.46875 z m 22.28125,4.78125 c -1.37659,0 -2.5,1.12341 -2.5,2.5 0,1.37659 1.12341,2.46875 2.5,2.46875 1.37659,0 2.46875,-1.09216 2.46875,-2.46875 0,-1.37659 -1.09216,-2.5 -2.46875,-2.5 z m 489.65625,5.8125 c -1.37659,0 -2.5,1.09216 -2.5,2.46875 0,1.37659 1.12341,2.5 2.5,2.5 1.37659,0 2.46875,-1.12341 2.46875,-2.5 0,-1.37659 -1.09216,-2.46875 -2.46875,-2.46875 z m -97.6875,6.3125 c -1.37659,0 -2.5,1.09216 -2.5,2.46875 0,1.37659 1.12341,2.5 2.5,2.5 1.37659,0 2.5,-1.12341 2.5,-2.5 0,-1.37659 -1.12341,-2.46875 -2.5,-2.46875 z m -184.8125,2.90625 c -1.37659,0 -2.5,1.12341 -2.5,2.5 0,1.37659 1.12341,2.5 2.5,2.5 1.37659,0 2.5,-1.12341 2.5,-2.5 0,-1.37659 -1.12341,-2.5 -2.5,-2.5 z m -82.40625,3.1875 c -1.37659,0 -2.5,1.12341 -2.5,2.5 0,1.37659 1.12341,2.5 2.5,2.5 1.37659,0 2.5,-1.12341 2.5,-2.5 0,-1.37659 -1.12341,-2.5 -2.5,-2.5 z m -111.78125,11.15625 c -1.37659,0 -2.5,1.12341 -2.5,2.5 0,1.37659 1.12341,2.5 2.5,2.5 1.37659,0 2.5,-1.12341 2.5,-2.5 0,-1.37659 -1.12341,-2.5 -2.5,-2.5 z m -20.9375,14.875 c -1.37659,0 -2.5,1.12341 -2.5,2.5 0,1.37659 1.12341,2.46875 2.5,2.46875 1.37659,0 2.46875,-1.09216 2.46875,-2.46875 0,-1.37659 -1.09216,-2.5 -2.46875,-2.5 z m 409,0.90625 c -1.37659,0 -2.5,1.12341 -2.5,2.5 0,1.37659 1.12341,2.5 2.5,2.5 1.37659,0 2.46875,-1.12341 2.46875,-2.5 0,-1.37659 -1.09216,-2.5 -2.46875,-2.5 z M 630.25,427.53125 c -1.37659,0 -2.5,1.12341 -2.5,2.5 0,1.37659 1.12341,2.5 2.5,2.5 1.37659,0 2.46875,-1.12341 2.46875,-2.5 0,-1.37659 -1.09216,-2.5 -2.46875,-2.5 z m -336.21875,2.03125 c -1.37659,0 -2.5,1.12341 -2.5,2.5 0,1.37659 1.12341,2.46875 2.5,2.46875 1.37659,0 2.46875,-1.09216 2.46875,-2.46875 0,-1.37659 -1.09216,-2.5 -2.46875,-2.5 z m 525.15625,5.625 c -1.37659,0 -2.5,1.12341 -2.5,2.5 0,1.37659 1.12341,2.5 2.5,2.5 1.37659,0 2.5,-1.12341 2.5,-2.5 0,-1.37659 -1.12341,-2.5 -2.5,-2.5 z m -187.25,3.125 c -1.37659,0 -2.5,1.09216 -2.5,2.46875 0,0.98479 0.57716,1.84513 1.40625,2.25 0.4565,0.61212 1.18093,1 2,1 1.37659,0 2.5,-1.12341 2.5,-2.5 0,-0.99311 -0.59487,-1.82499 -1.4375,-2.21875 -0.45491,-0.60333 -1.15493,-1 -1.96875,-1 z m -178.15625,1.625 c -1.37659,0 -2.5,1.12341 -2.5,2.5 0,1.37659 1.12341,2.5 2.5,2.5 1.37659,0 2.5,-1.12341 2.5,-2.5 0,-1.37659 -1.12341,-2.5 -2.5,-2.5 z M 764.4375,449.25 c -1.37659,0 -2.5,1.12341 -2.5,2.5 0,0.4756 0.14269,0.90686 0.375,1.28125 -0.10288,0.27318 -0.15625,0.56584 -0.15625,0.875 0,1.37659 1.12341,2.5 2.5,2.5 1.37659,0 2.5,-1.12341 2.5,-2.5 0,-0.47439 -0.14495,-0.90377 -0.375,-1.28125 0.10347,-0.27132 0.15625,-0.56584 0.15625,-0.875 0,-1.37659 -1.12341,-2.5 -2.5,-2.5 z m -222.5,9.125 c -1.37659,0 -2.46875,1.09216 -2.46875,2.46875 0,1.37659 1.09216,2.5 2.46875,2.5 1.37659,0 2.5,-1.12341 2.5,-2.5 0,-1.37659 -1.12341,-2.46875 -2.5,-2.46875 z M 303.75,471.96875 c -1.37659,0 -2.5,1.12341 -2.5,2.5 0,1.37659 1.12341,2.46875 2.5,2.46875 1.37659,0 2.5,-1.09216 2.5,-2.46875 0,-1.37659 -1.12341,-2.5 -2.5,-2.5 z m 311,2.90625 c -1.37659,0 -2.5,1.12341 -2.5,2.5 0,1.37659 1.12341,2.5 2.5,2.5 1.37659,0 2.5,-1.12341 2.5,-2.5 0,-1.37659 -1.12341,-2.5 -2.5,-2.5 z m -19.46875,3.09375 c -1.37659,0 -2.5,1.09216 -2.5,2.46875 0,1.37659 1.12341,2.5 2.5,2.5 1.37659,0 2.46875,-1.12341 2.46875,-2.5 0,-1.37659 -1.09216,-2.46875 -2.46875,-2.46875 z m 11.71875,0 c -1.37659,0 -2.5,1.12341 -2.5,2.5 0,1.37659 1.12341,2.46875 2.5,2.46875 1.37659,0 2.46875,-1.09216 2.46875,-2.46875 0,-1.37659 -1.09216,-2.5 -2.46875,-2.5 z m -301.59375,0.34375 c -1.37659,0 -2.5,1.09216 -2.5,2.46875 0,1.37659 1.12341,2.5 2.5,2.5 1.37659,0 2.46875,-1.12341 2.46875,-2.5 0,-1.37659 -1.09216,-2.46875 -2.46875,-2.46875 z m 199.46875,4.65625 c -1.37659,0 -2.5,1.12341 -2.5,2.5 0,1.37659 1.12341,2.5 2.5,2.5 1.37659,0 2.46875,-1.12341 2.46875,-2.5 0,-1.37659 -1.09216,-2.5 -2.46875,-2.5 z m -77.46875,2.40625 c -1.37659,0 -2.5,1.12341 -2.5,2.5 0,1.37659 1.12341,2.5 2.5,2.5 1.37659,0 2.5,-1.12341 2.5,-2.5 0,-1.37659 -1.12341,-2.5 -2.5,-2.5 z m -40.28125,3.3125 c -1.37659,0 -2.5,1.12341 -2.5,2.5 0,1.37659 1.12341,2.5 2.5,2.5 1.37659,0 2.5,-1.12341 2.5,-2.5 0,-1.37659 -1.12341,-2.5 -2.5,-2.5 z m -157.8125,4.875 c -1.37659,0 -2.5,1.12341 -2.5,2.5 0,1.37659 1.12341,2.5 2.5,2.5 1.37659,0 2.46875,-1.12341 2.46875,-2.5 0,-1.37659 -1.09216,-2.5 -2.46875,-2.5 z m 324.09375,4.59375 c -1.37659,0 -2.5,1.12341 -2.5,2.5 0,1.37659 1.12341,2.5 2.5,2.5 1.37659,0 2.5,-1.12341 2.5,-2.5 0,-1.37659 -1.12341,-2.5 -2.5,-2.5 z m -144.28125,7.75 c -1.37659,0 -2.5,1.12341 -2.5,2.5 0,1.37659 1.12341,2.46875 2.5,2.46875 1.37659,0 2.46875,-1.09216 2.46875,-2.46875 0,-1.37659 -1.09216,-2.5 -2.46875,-2.5 z M 771.5,510.5625 c -1.37659,0 -2.5,1.12341 -2.5,2.5 0,1.37659 1.12341,2.5 2.5,2.5 1.37659,0 2.5,-1.12341 2.5,-2.5 0,-1.37659 -1.12341,-2.5 -2.5,-2.5 z m -488.75,0.46875 c -1.37659,0 -2.46875,1.09216 -2.46875,2.46875 0,1.37659 1.09216,2.5 2.46875,2.5 1.37659,0 2.5,-1.12341 2.5,-2.5 0,-1.37659 -1.12341,-2.46875 -2.5,-2.46875 z m 217.0625,4.5625 c -1.37659,0 -2.5,1.12341 -2.5,2.5 0,1.37659 1.12341,2.5 2.5,2.5 1.37659,0 2.5,-1.12341 2.5,-2.5 0,-1.37659 -1.12341,-2.5 -2.5,-2.5 z m 316.46875,3.96875 c -1.37659,0 -2.5,1.12341 -2.5,2.5 0,1.37659 1.12341,2.46875 2.5,2.46875 1.37659,0 2.46875,-1.09216 2.46875,-2.46875 0,-1.37659 -1.09216,-2.5 -2.46875,-2.5 z M 487.0625,527.5 c -1.37659,0 -2.5,1.09216 -2.5,2.46875 0,1.37659 1.12341,2.5 2.5,2.5 1.37659,0 2.5,-1.12341 2.5,-2.5 0,-1.37659 -1.12341,-2.46875 -2.5,-2.46875 z m -122.625,8.78125 c -1.37659,0 -2.5,1.09216 -2.5,2.46875 0,1.37659 1.12341,2.5 2.5,2.5 1.37659,0 2.5,-1.12341 2.5,-2.5 0,-1.37659 -1.12341,-2.46875 -2.5,-2.46875 z m -89.34375,0.3125 c -1.37659,0 -2.5,1.12341 -2.5,2.5 0,1.37659 1.12341,2.5 2.5,2.5 1.37659,0 2.46875,-1.12341 2.46875,-2.5 0,-1.37659 -1.09216,-2.5 -2.46875,-2.5 z M 434.5,544.65625 c -1.37659,0 -2.5,1.09216 -2.5,2.46875 0,1.37659 1.12341,2.5 2.5,2.5 1.37659,0 2.5,-1.12341 2.5,-2.5 0,-1.37659 -1.12341,-2.46875 -2.5,-2.46875 z m -100.25,3.625 c -1.37659,0 -2.5,1.09216 -2.5,2.46875 0,1.37659 1.12341,2.5 2.5,2.5 1.37659,0 2.46875,-1.12341 2.46875,-2.5 0,-1.37659 -1.09216,-2.46875 -2.46875,-2.46875 z m -97.25,2.625 c -1.37659,0 -2.46875,1.09216 -2.46875,2.46875 0,1.37659 1.09216,2.5 2.46875,2.5 1.37659,0 2.5,-1.12341 2.5,-2.5 0,-1.37659 -1.12341,-2.46875 -2.5,-2.46875 z m 413.96875,1.15625 c -1.37659,0 -2.5,1.12341 -2.5,2.5 0,1.37659 1.12341,2.5 2.5,2.5 1.37659,0 2.46875,-1.12341 2.46875,-2.5 0,-1.37659 -1.09216,-2.5 -2.46875,-2.5 z m -284.90625,6.53125 c -1.37659,0 -2.5,1.12341 -2.5,2.5 0,1.37659 1.12341,2.46875 2.5,2.46875 1.37659,0 2.5,-1.09216 2.5,-2.46875 0,-1.37659 -1.12341,-2.5 -2.5,-2.5 z m 408.84375,0.34375 c -1.37659,0 -2.5,1.12341 -2.5,2.5 0,1.37659 1.12341,2.5 2.5,2.5 1.37659,0 2.5,-1.12341 2.5,-2.5 0,-1.37659 -1.12341,-2.5 -2.5,-2.5 z m -73.78125,8.25 c -1.37659,0 -2.46875,1.12341 -2.46875,2.5 0,1.37659 1.09216,2.5 2.46875,2.5 1.37659,0 2.5,-1.12341 2.5,-2.5 0,-1.37659 -1.12341,-2.5 -2.5,-2.5 z m 33.125,12.03125 c -1.37659,0 -2.5,1.12341 -2.5,2.5 0,1.37659 1.12341,2.5 2.5,2.5 1.37659,0 2.5,-1.12341 2.5,-2.5 0,-1.37659 -1.12341,-2.5 -2.5,-2.5 z m 45.28125,0.96875 c -1.37659,0 -2.46875,1.09216 -2.46875,2.46875 0,1.37659 1.09216,2.5 2.46875,2.5 1.37659,0 2.5,-1.12341 2.5,-2.5 0,-1.37659 -1.12341,-2.46875 -2.5,-2.46875 z m -526.5625,3.625 c -1.37659,0 -2.5,1.12341 -2.5,2.5 0,1.37659 1.12341,2.5 2.5,2.5 1.37659,0 2.46875,-1.12341 2.46875,-2.5 0,-1.37659 -1.09216,-2.5 -2.46875,-2.5 z m 531.25,4.5 c -1.37659,0 -2.46875,1.12341 -2.46875,2.5 0,1.37659 1.09216,2.5 2.46875,2.5 1.03244,0 1.93411,-0.63664 2.3125,-1.53125 0,1.37659 1.12341,2.5 2.5,2.5 1.37659,0 2.46875,-1.12341 2.46875,-2.5 0,-1.37659 -1.09216,-2.46875 -2.46875,-2.46875 -1.03244,0 -1.93201,0.61208 -2.3125,1.5 0,-1.37659 -1.12341,-2.5 -2.5,-2.5 z m -426,0.25 c -1.37659,0 -2.5,1.12341 -2.5,2.5 0,1.37659 1.12341,2.5 2.5,2.5 1.37659,0 2.46875,-1.12341 2.46875,-2.5 0,-1.37659 -1.09216,-2.5 -2.46875,-2.5 z m 142.71875,1.125 c -1.37659,0 -2.5,1.09216 -2.5,2.46875 0,1.37659 1.12341,2.5 2.5,2.5 1.37659,0 2.5,-1.12341 2.5,-2.5 0,-1.37659 -1.12341,-2.46875 -2.5,-2.46875 z M 265.25,591.65625 c -1.37659,0 -2.5,1.12341 -2.5,2.5 0,1.37659 1.12341,2.5 2.5,2.5 1.37659,0 2.5,-1.12341 2.5,-2.5 0,-1.37659 -1.12341,-2.5 -2.5,-2.5 z m 230.15625,4 c -1.37659,0 -2.5,1.09216 -2.5,2.46875 0,1.37659 1.12341,2.5 2.5,2.5 1.37659,0 2.5,-1.12341 2.5,-2.5 0,-1.37659 -1.12341,-2.46875 -2.5,-2.46875 z m 248,3.21875 c -1.37659,0 -2.46875,1.12341 -2.46875,2.5 0,1.37659 1.09216,2.46875 2.46875,2.46875 1.37659,0 2.5,-1.09216 2.5,-2.46875 0,-1.37659 -1.12341,-2.5 -2.5,-2.5 z M 263.375,599.25 c -1.37659,0 -2.5,1.09216 -2.5,2.46875 0,1.37659 1.12341,2.5 2.5,2.5 1.37659,0 2.5,-1.12341 2.5,-2.5 0,-1.37659 -1.12341,-2.46875 -2.5,-2.46875 z m 153.90625,1 c -1.37659,0 -2.46875,1.12341 -2.46875,2.5 0,1.37659 1.09216,2.5 2.46875,2.5 1.37659,0 2.5,-1.12341 2.5,-2.5 0,-1.37659 -1.12341,-2.5 -2.5,-2.5 z m 153.84375,0.84375 c -1.37659,0 -2.46875,1.09216 -2.46875,2.46875 0,1.37659 1.09216,2.5 2.46875,2.5 1.37659,0 2.5,-1.12341 2.5,-2.5 0,-1.37659 -1.12341,-2.46875 -2.5,-2.46875 z m -267.40625,2.96875 c -1.37659,0 -2.5,1.09216 -2.5,2.46875 0,1.37659 1.12341,2.5 2.5,2.5 1.37659,0 2.46875,-1.12341 2.46875,-2.5 0,-1.37659 -1.09216,-2.46875 -2.46875,-2.46875 z m 47.96875,1.625 c -1.37659,0 -2.5,1.09216 -2.5,2.46875 0,1.37659 1.12341,2.5 2.5,2.5 1.37659,0 2.5,-1.12341 2.5,-2.5 0,-1.37659 -1.12341,-2.46875 -2.5,-2.46875 z m 436,2.3125 c -1.37659,0 -2.5,1.12341 -2.5,2.5 0,1.37659 1.12341,2.5 2.5,2.5 1.37659,0 2.5,-1.12341 2.5,-2.5 0,-1.37659 -1.12341,-2.5 -2.5,-2.5 z m -502.65625,0.71875 c -1.37659,0 -2.5,1.12341 -2.5,2.5 0,1.37659 1.12341,2.5 2.5,2.5 1.37659,0 2.46875,-1.12341 2.46875,-2.5 0,-1.37659 -1.09216,-2.5 -2.46875,-2.5 z m 44.625,2.71875 c -1.37659,0 -2.5,1.09216 -2.5,2.46875 0,1.37659 1.12341,2.5 2.5,2.5 1.37659,0 2.46875,-1.12341 2.46875,-2.5 0,-1.37659 -1.09216,-2.46875 -2.46875,-2.46875 z m 56.21875,3.65625 c -1.37659,0 -2.5,1.09216 -2.5,2.46875 0,1.37659 1.12341,2.5 2.5,2.5 1.37659,0 2.5,-1.12341 2.5,-2.5 0,-1.37659 -1.12341,-2.46875 -2.5,-2.46875 z m 78.9375,0.1875 c -1.37659,0 -2.5,1.12341 -2.5,2.5 0,1.37659 1.12341,2.5 2.5,2.5 1.37659,0 2.5,-1.12341 2.5,-2.5 0,-1.37659 -1.12341,-2.5 -2.5,-2.5 z M 647.625,618.125 c -1.37659,0 -2.5,1.12341 -2.5,2.5 0,1.37659 1.12341,2.5 2.5,2.5 1.37659,0 2.46875,-1.12341 2.46875,-2.5 0,-1.37659 -1.09216,-2.5 -2.46875,-2.5 z m 53.0625,6.65625 c -1.37659,0 -2.5,1.12341 -2.5,2.5 0,1.37659 1.12341,2.5 2.5,2.5 0.51622,0 1.00713,-0.16743 1.40625,-0.4375 0.0336,1.34731 1.14459,2.4375 2.5,2.4375 1.37659,0 2.5,-1.12341 2.5,-2.5 0,-1.37659 -1.12341,-2.5 -2.5,-2.5 -0.51622,0 -1.00844,0.16874 -1.40625,0.4375 -0.0338,-1.34754 -1.14459,-2.4375 -2.5,-2.4375 z m -212.53125,5.75 c -1.37659,0 -2.5,1.12341 -2.5,2.5 0,1.37659 1.12341,2.46875 2.5,2.46875 1.37659,0 2.5,-1.09216 2.5,-2.46875 0,-1.37659 -1.12341,-2.5 -2.5,-2.5 z m -101.46875,1.125 c -1.37659,0 -2.5,1.12341 -2.5,2.5 0,1.37659 1.12341,2.46875 2.5,2.46875 1.37659,0 2.46875,-1.09216 2.46875,-2.46875 0,-1.37659 -1.09216,-2.5 -2.46875,-2.5 z m 358.375,1.65625 c -1.37659,0 -2.5,1.12341 -2.5,2.5 0,1.37659 1.12341,2.5 2.5,2.5 1.37659,0 2.46875,-1.12341 2.46875,-2.5 0,-1.37659 -1.09216,-2.5 -2.46875,-2.5 z m 50.125,2.125 c -1.37659,0 -2.46875,1.12341 -2.46875,2.5 0,1.37659 1.09216,2.5 2.46875,2.5 1.37659,0 2.5,-1.12341 2.5,-2.5 0,-1.37659 -1.12341,-2.5 -2.5,-2.5 z m -360.25,4.25 c -1.37659,0 -2.46875,1.12341 -2.46875,2.5 0,1.37659 1.09216,2.46875 2.46875,2.46875 1.37659,0 2.5,-1.09216 2.5,-2.46875 0,-1.37659 -1.12341,-2.5 -2.5,-2.5 z m 354.96875,2.34375 c -1.37659,0 -2.5,1.12341 -2.5,2.5 0,1.37659 1.12341,2.5 2.5,2.5 1.37659,0 2.46875,-1.12341 2.46875,-2.5 0,-1.37659 -1.09216,-2.5 -2.46875,-2.5 z m -325.375,3.4375 c -1.37659,0 -2.5,1.09216 -2.5,2.46875 0,1.37659 1.12341,2.5 2.5,2.5 1.37659,0 2.5,-1.12341 2.5,-2.5 0,-1.37659 -1.12341,-2.46875 -2.5,-2.46875 z M 636.5,645.8125 c -1.37659,0 -2.46875,1.12341 -2.46875,2.5 0,1.37659 1.09216,2.5 2.46875,2.5 1.37659,0 2.5,-1.12341 2.5,-2.5 0,-1.37659 -1.12341,-2.5 -2.5,-2.5 z m -162.65625,2.53125 c -1.37659,0 -2.5,1.12341 -2.5,2.5 0,1.37659 1.12341,2.5 2.5,2.5 1.37659,0 2.5,-1.12341 2.5,-2.5 0,-1.37659 -1.12341,-2.5 -2.5,-2.5 z m 102.75,2.90625 c -1.37659,0 -2.5,1.12341 -2.5,2.5 0,1.37659 1.12341,2.5 2.5,2.5 1.37659,0 2.5,-1.12341 2.5,-2.5 0,-1.37659 -1.12341,-2.5 -2.5,-2.5 z m -269.53125,0.96875 c -1.37659,0 -2.5,1.12341 -2.5,2.5 0,1.37659 1.12341,2.46875 2.5,2.46875 0.30916,0 0.60124,-0.0552 0.875,-0.15625 0.19588,1.18111 1.20085,2.09375 2.4375,2.09375 1.37659,0 2.5,-1.12341 2.5,-2.5 0,-1.37659 -1.12341,-2.46875 -2.5,-2.46875 -0.30973,0 -0.6014,0.053 -0.875,0.15625 -0.19754,-1.18182 -1.20122,-2.09375 -2.4375,-2.09375 z m -45.5625,1.1875 c -1.37659,0 -2.5,1.12341 -2.5,2.5 0,1.37659 1.12341,2.5 2.5,2.5 1.37659,0 2.46875,-1.12341 2.46875,-2.5 0,-1.37659 -1.09216,-2.5 -2.46875,-2.5 z M 663.53125,657.75 c -1.37659,0 -2.5,1.09216 -2.5,2.46875 0,1.37659 1.12341,2.5 2.5,2.5 1.37659,0 2.46875,-1.12341 2.46875,-2.5 0,-1.37659 -1.09216,-2.46875 -2.46875,-2.46875 z m -115.84375,6.5625 c -1.37659,0 -2.5,1.12341 -2.5,2.5 0,1.37659 1.12341,2.5 2.5,2.5 1.37659,0 2.5,-1.12341 2.5,-2.5 0,-1.37659 -1.12341,-2.5 -2.5,-2.5 z"
         style="fill:#666666;fill-opacity:1;fill-rule:nonzero;stroke:none"
         inkscape:connector-curvature="0" />
      <path
         transform="translate(0,308.2677)"
         d="m 817.71652,356.28693 c 0,115.27741 -132.47713,208.72822 -295.89596,208.72822 -163.41883,0 -295.89597,-93.45081 -295.89597,-208.72822 0,-115.27742 132.47714,-208.72823 295.89597,-208.72823 163.41883,0 295.89596,93.45081 295.89596,208.72823 z"
         sodipodi:ry="208.72823"
         sodipodi:rx="295.89597"
         sodipodi:cy="356.28693"
         sodipodi:cx="521.82056"
         id="path2996"
         style="fill:none;stroke:#d45500;stroke-width:1.5;stroke-miterlimit:4;stroke-opacity:1;stroke-dasharray:none"
         sodipodi:type="arc" />
      <path
         sodipodi:type="arc"
         style="fill:none;stroke:#d45500;stroke-width:1.62478054;stroke-miterlimit:4;stroke-opacity:1;stroke-dasharray:none"
         id="path3766"
         sodipodi:cx="521.82056"
         sodipodi:cy="356.28693"
         sodipodi:rx="295.89597"
         sodipodi:ry="208.72823"
         d="m 817.71652,356.28693 c 0,115.27741 -132.47713,208.72822 -295.89596,208.72822 -163.41883,0 -295.89597,-93.45081 -295.89597,-208.72822 0,-115.27742 132.47714,-208.72823 295.89597,-208.72823 163.41883,0 295.89596,93.45081 295.89596,208.72823 z"
         transform="matrix(0.79158316,0,0,1.0767046,116.4649,280.93888)" />
      <path
         transform="matrix(0.66833667,0,0,0.93323869,184.63181,335.90826)"
         d="m 817.71652,356.28693 c 0,115.27741 -132.47713,208.72822 -295.89596,208.72822 -163.41883,0 -295.89597,-93.45081 -295.89597,-208.72822 0,-115.27742 132.47714,-208.72823 295.89597,-208.72823 163.41883,0 295.89596,93.45081 295.89596,208.72823 z"
         sodipodi:ry="208.72823"
         sodipodi:rx="295.89597"
         sodipodi:cy="356.28693"
         sodipodi:cx="521.82056"
         id="path3768"
         style="fill:none;stroke:#d45500;stroke-width:1.89931607;stroke-miterlimit:4;stroke-opacity:1;stroke-dasharray:none"
         sodipodi:type="arc" />
      <path
         sodipodi:type="arc"
         style="fill:none;stroke:#d45500;stroke-width:2.29869652;stroke-miterlimit:4;stroke-opacity:1;stroke-dasharray:none"
         id="path3770"
         sodipodi:cx="521.82056"
         sodipodi:cy="356.28693"
         sodipodi:rx="295.89597"
         sodipodi:ry="208.72823"
         d="m 817.71652,356.28693 c 0,115.27741 -132.47713,208.72822 -295.89596,208.72822 -163.41883,0 -295.89597,-93.45081 -295.89597,-208.72822 0,-115.27742 132.47714,-208.72823 295.89597,-208.72823 163.41883,0 295.89596,93.45081 295.89596,208.72823 z"
         transform="matrix(0.54208417,0,0,0.78551142,247.54807,386.76262)" />
      <path
         transform="matrix(0.41082164,0,0,0.57812506,316.34005,459.46571)"
         d="m 817.71652,356.28693 c 0,115.27741 -132.47713,208.72822 -295.89596,208.72822 -163.41883,0 -295.89597,-93.45081 -295.89597,-208.72822 0,-115.27742 132.47714,-208.72823 295.89597,-208.72823 163.41883,0 295.89596,93.45081 295.89596,208.72823 z"
         sodipodi:ry="208.72823"
         sodipodi:rx="295.89597"
         sodipodi:cy="356.28693"
         sodipodi:cx="521.82056"
         id="path3772"
         style="fill:none;stroke:#d45500;stroke-width:3.07789421;stroke-miterlimit:4;stroke-opacity:1;stroke-dasharray:none"
         sodipodi:type="arc" />
      <path
         sodipodi:type="arc"
         style="fill:none;stroke:#d45500;stroke-width:4.67560291;stroke-miterlimit:4;stroke-opacity:1;stroke-dasharray:none"
         id="path3774"
         sodipodi:cx="521.82056"
         sodipodi:cy="356.28693"
         sodipodi:rx="295.89597"
         sodipodi:ry="208.72823"
         d="m 817.71652,356.28693 c 0,115.27741 -132.47713,208.72822 -295.89596,208.72822 -163.41883,0 -295.89597,-93.45081 -295.89597,-208.72822 0,-115.27742 132.47714,-208.72823 295.89597,-208.72823 163.41883,0 295.89596,93.45081 295.89596,208.72823 z"
         transform="matrix(0.2765531,0,0,0.37215916,384.6252,526.02943)" />
      <path
         transform="matrix(0.23046092,0,0,0.30823871,407.49109,549.69292)"
         d="m 817.71652,356.28693 c 0,115.27741 -132.47713,208.72822 -295.89596,208.72822 -163.41883,0 -295.89597,-93.45081 -295.89597,-208.72822 0,-115.27742 132.47714,-208.72823 295.89597,-208.72823 163.41883,0 295.89596,93.45081 295.89596,208.72823 z"
         sodipodi:ry="208.72823"
         sodipodi:rx="295.89597"
         sodipodi:cy="356.28693"
         sodipodi:cx="521.82056"
         id="path3776"
         style="fill:none;stroke:#d45500;stroke-width:5.62793398;stroke-miterlimit:4;stroke-opacity:1;stroke-dasharray:none"
         sodipodi:type="arc" />
      <path
         sodipodi:type="arc"
         style="fill:none;stroke:#d45500;stroke-width:6.92342377;stroke-miterlimit:4;stroke-opacity:1;stroke-dasharray:none"
         id="path3778"
         sodipodi:cx="521.82056"
         sodipodi:cy="356.28693"
         sodipodi:rx="295.89597"
         sodipodi:ry="208.72823"
         d="m 817.71652,356.28693 c 0,115.27741 -132.47713,208.72822 -295.89596,208.72822 -163.41883,0 -295.89597,-93.45081 -295.89597,-208.72822 0,-115.27742 132.47714,-208.72823 295.89597,-208.72823 163.41883,0 295.89596,93.45081 295.89596,208.72823 z"
         transform="matrix(0.18436874,0,0,0.25459704,433.32187,568.80475)" />
      <path
         transform="matrix(0.13827656,0,0,0.18215386,455.59478,595.50477)"
         d="m 817.71652,356.28693 c 0,115.27741 -132.47713,208.72822 -295.89596,208.72822 -163.41883,0 -295.89597,-93.45081 -295.89597,-208.72822 0,-115.27742 132.47714,-208.72823 295.89597,-208.72823 163.41883,0 295.89596,93.45081 295.89596,208.72823 z"
         sodipodi:ry="208.72823"
         sodipodi:rx="295.89597"
         sodipodi:cy="356.28693"
         sodipodi:cx="521.82056"
         id="path3780"
         style="fill:none;stroke:#d45500;stroke-width:9.45143604;stroke-miterlimit:4;stroke-opacity:1;stroke-dasharray:none"
         sodipodi:type="arc" />
      <path
         sodipodi:type="arc"
         style="fill:url(#radialGradient4821);fill-opacity:1;stroke:none"
         id="path3782"
         sodipodi:cx="521.82056"
         sodipodi:cy="356.28693"
         sodipodi:rx="295.89597"
         sodipodi:ry="208.72823"
         d="m 817.71652,356.28693 c 0,115.27741 -132.47713,208.72822 -295.89596,208.72822 -163.41883,0 -295.89597,-93.45081 -295.89597,-208.72822 0,-115.27742 132.47714,-208.72823 295.89597,-208.72823 163.41883,0 295.89596,93.45081 295.89596,208.72823 z"
         transform="matrix(0.06505665,0,0,0.09222519,494.07714,625.90001)" />
      <path
         transform="translate(81.830949,362.22869)"
         d="m 161.28999,250.44038 c 0,4.42115 -3.58405,8.00521 -8.0052,8.00521 -4.42115,0 -8.0052,-3.58406 -8.0052,-8.00521 0,-4.42115 3.58405,-8.0052 8.0052,-8.0052 4.42115,0 8.0052,3.58405 8.0052,8.0052 z"
         sodipodi:ry="8.0052013"
         sodipodi:rx="8.0052013"
         sodipodi:cy="250.44038"
         sodipodi:cx="153.28479"
         id="path3784"
         style="fill:url(#radialGradient4823);stroke:none"
         sodipodi:type="arc" />
      <path
         sodipodi:type="arc"
         style="fill:url(#radialGradient4825);stroke:none"
         id="path3786"
         sodipodi:cx="153.28479"
         sodipodi:cy="250.44038"
         sodipodi:rx="8.0052013"
         sodipodi:ry="8.0052013"
         d="m 161.28999,250.44038 c 0,4.42115 -3.58405,8.00521 -8.0052,8.00521 -4.42115,0 -8.0052,-3.58406 -8.0052,-8.00521 0,-4.42115 3.58405,-8.0052 8.0052,-8.0052 4.42115,0 8.0052,3.58405 8.0052,8.0052 z"
         transform="translate(217.02991,578.07264)" />
      <path
         transform="translate(543.16775,528.85547)"
         d="m 161.28999,250.44038 c 0,4.42115 -3.58405,8.00521 -8.0052,8.00521 -4.42115,0 -8.0052,-3.58406 -8.0052,-8.00521 0,-4.42115 3.58405,-8.0052 8.0052,-8.0052 4.42115,0 8.0052,3.58405 8.0052,8.0052 z"
         sodipodi:ry="8.0052013"
         sodipodi:rx="8.0052013"
         sodipodi:cy="250.44038"
         sodipodi:cx="153.28479"
         id="path3788"
         style="fill:url(#radialGradient4827);stroke:none"
         sodipodi:type="arc" />
      <path
         sodipodi:type="arc"
         style="fill:url(#radialGradient4829);stroke:none"
         id="path3790"
         sodipodi:cx="153.28479"
         sodipodi:cy="250.44038"
         sodipodi:rx="8.0052013"
         sodipodi:ry="8.0052013"
         d="m 161.28999,250.44038 c 0,4.42115 -3.58405,8.00521 -8.0052,8.00521 -4.42115,0 -8.0052,-3.58406 -8.0052,-8.00521 0,-4.42115 3.58405,-8.0052 8.0052,-8.0052 4.42115,0 8.0052,3.58405 8.0052,8.0052 z"
         transform="translate(456.59298,419.15456)" />
      <path
         transform="translate(411.52666,448.80345)"
         d="m 161.28999,250.44038 c 0,4.42115 -3.58405,8.00521 -8.0052,8.00521 -4.42115,0 -8.0052,-3.58406 -8.0052,-8.00521 0,-4.42115 3.58405,-8.0052 8.0052,-8.0052 4.42115,0 8.0052,3.58405 8.0052,8.0052 z"
         sodipodi:ry="8.0052013"
         sodipodi:rx="8.0052013"
         sodipodi:cy="250.44038"
         sodipodi:cx="153.28479"
         id="path3792"
         style="fill:url(#radialGradient4831);stroke:none"
         sodipodi:type="arc" />
      <path
         sodipodi:type="arc"
         style="fill:url(#radialGradient4833);fill-opacity:1;stroke:none"
         id="path3794"
         sodipodi:cx="153.28479"
         sodipodi:cy="250.44038"
         sodipodi:rx="8.0052013"
         sodipodi:ry="8.0052013"
         d="m 161.28999,250.44038 c 0,4.42115 -3.58405,8.00521 -8.0052,8.00521 -4.42115,0 -8.0052,-3.58406 -8.0052,-8.00521 0,-4.42115 3.58405,-8.0052 8.0052,-8.0052 4.42115,0 8.0052,3.58405 8.0052,8.0052 z"
         transform="translate(342.14825,429.23518)" />
      <path
         transform="translate(382.47075,345.03232)"
         d="m 161.28999,250.44038 c 0,4.42115 -3.58405,8.00521 -8.0052,8.00521 -4.42115,0 -8.0052,-3.58406 -8.0052,-8.00521 0,-4.42115 3.58405,-8.0052 8.0052,-8.0052 4.42115,0 8.0052,3.58405 8.0052,8.0052 z"
         sodipodi:ry="8.0052013"
         sodipodi:rx="8.0052013"
         sodipodi:cy="250.44038"
         sodipodi:cx="153.28479"
         id="path3796"
         style="fill:url(#radialGradient4835);stroke:none"
         sodipodi:type="arc" />
      <path
         sodipodi:type="arc"
         style="fill:url(#radialGradient4837);stroke:none"
         id="path3798"
         sodipodi:cx="153.28479"
         sodipodi:cy="250.44038"
         sodipodi:rx="8.0052013"
         sodipodi:ry="8.0052013"
         d="m 161.28999,250.44038 c 0,4.42115 -3.58405,8.00521 -8.0052,8.00521 -4.42115,0 -8.0052,-3.58406 -8.0052,-8.00521 0,-4.42115 3.58405,-8.0052 8.0052,-8.0052 4.42115,0 8.0052,3.58405 8.0052,8.0052 z"
         transform="matrix(1.2962963,0,0,1.2962963,219.64341,292.76795)" />
      <path
         transform="matrix(1.2962963,0,0,1.2962963,446.16097,226.9474)"
         d="m 161.28999,250.44038 c 0,4.42115 -3.58405,8.00521 -8.0052,8.00521 -4.42115,0 -8.0052,-3.58406 -8.0052,-8.00521 0,-4.42115 3.58405,-8.0052 8.0052,-8.0052 4.42115,0 8.0052,3.58405 8.0052,8.0052 z"
         sodipodi:ry="8.0052013"
         sodipodi:rx="8.0052013"
         sodipodi:cy="250.44038"
         sodipodi:cx="153.28479"
         id="path3800"
         style="fill:url(#radialGradient4839);stroke:none"
         sodipodi:type="arc" />
      <path
         sodipodi:nodetypes="sssccccs"
         inkscape:connector-curvature="0"
         id="path3802"
         d="m 161.28999,250.44038 c 0,4.42115 -3.58405,8.00521 -8.0052,8.00521 -4.42115,0 -8.0052,-3.58406 -8.0052,-8.00521 0,-3.52439 2.27756,-6.51682 5.44115,-7.58576 -0.82517,2.84631 -1.15327,4.58634 -0.94027,7.29325 1.10186,3.07258 6.09702,2.61119 7.82394,-0.183 0.058,-2.29422 -0.30526,-4.61177 -0.93575,-6.78143 2.72983,1.27508 4.62133,4.04512 4.62133,7.25694 z"
         style="fill:url(#radialGradient4841);stroke:none"
         transform="matrix(2.5925926,0,0,0.92592591,246.56899,319.7031)" />
    </g>
  </g>
</svg>
